<svg xmlns="http://www.w3.org/2000/svg" viewBox="0 0 32 32" id="Globe--Streamline-Font-Awesome" height="32" width="32">
  <desc>
    Globe Streamline Icon: https://streamlinehq.com
  </desc>
<!--! Font Awesome Free 6.5.2 by @fontawesome - https://fontawesome.com License - https://fontawesome.com/license/free (Icons: CC BY 4.0, Fonts: SIL OFL 1.1, Code: MIT License) Copyright 2024 Fonticons, Inc.-->
  <path d="M22 16c0 1.3875 -0.075 2.725 -0.20625 4H10.20625c-0.1375 -1.275 -0.20625 -2.6125 -0.20625 -4s0.075 -2.725 0.20625 -4h11.5875c0.1375 1.275 0.20625 2.6125 0.20625 4zm1.8 -4h7.69375c0.33125 1.28125 0.50625 2.61875 0.50625 4s-0.175 2.71875 -0.50625 4H23.8c0.13125 -1.2875 0.2 -2.625 0.2 -4s-0.06875 -2.7125 -0.2 -4zm7.0375 -2H23.54375c-0.625 -3.99375 -1.8625 -7.3375 -3.45625 -9.475 4.89375 1.29375 8.875 4.84375 10.74375 9.475zm-9.31875 0H10.48125c0.38125 -2.275 0.96875 -4.2875 1.6875 -5.91875 0.65625 -1.475 1.3875 -2.54375 2.09375 -3.21875C14.9625 0.2 15.54375 0 16 0s1.0375 0.2 1.7375 0.8625c0.70625 0.675 1.4375 1.74375 2.09375 3.21875 0.725 1.625 1.30625 3.6375 1.6875 5.91875zm-13.0625 0H1.1625c1.875 -4.63125 5.85 -8.18125 10.75 -9.475 -1.59375 2.1375 -2.83125 5.48125 -3.45625 9.475zM0.50625 12h7.69375c-0.13125 1.2875 -0.2 2.625 -0.2 4s0.06875 2.7125 0.2 4H0.50625C0.175 18.71875 0 17.38125 0 16s0.175 -2.71875 0.50625 -4zm11.6625 15.9125c-0.725 -1.625 -1.30625 -3.6375 -1.6875 -5.9125h11.0375c-0.38125 2.275 -0.96875 4.2875 -1.6875 5.9125 -0.65625 1.475 -1.3875 2.54375 -2.09375 3.21875 -0.7 0.66875 -1.28125 0.86875 -1.7375 0.86875s-1.0375 -0.2 -1.7375 -0.8625c-0.70625 -0.675 -1.4375 -1.74375 -2.09375 -3.21875zM8.45625 22c0.625 3.99375 1.8625 7.3375 3.45625 9.475 -4.9 -1.29375 -8.875 -4.84375 -10.75 -9.475h7.29375zm22.38125 0c-1.875 4.63125 -5.85 8.18125 -10.74375 9.475 1.59375 -2.1375 2.825 -5.48125 3.45625 -9.475h7.2875z" fill="#007bff" stroke-width="0.0625"></path>
</svg>